<?xml version="1.0" encoding="UTF-8" standalone="no"?>
<!-- Created with Inkscape (http://www.inkscape.org/) -->

<svg
   xmlns:dc="http://purl.org/dc/elements/1.1/"
   xmlns:cc="http://creativecommons.org/ns#"
   xmlns:rdf="http://www.w3.org/1999/02/22-rdf-syntax-ns#"
   xmlns:svg="http://www.w3.org/2000/svg"
   xmlns="http://www.w3.org/2000/svg"
   xmlns:sodipodi="http://sodipodi.sourceforge.net/DTD/sodipodi-0.dtd"
   xmlns:inkscape="http://www.inkscape.org/namespaces/inkscape"
   version="1.1"
   width="32"
   height="37"
   id="svg2"
   inkscape:version="0.48.4 r9939"
   sodipodi:docname="marker_witch.svg">
  <sodipodi:namedview
     pagecolor="#ffffff"
     bordercolor="#666666"
     borderopacity="1"
     objecttolerance="10"
     gridtolerance="10"
     guidetolerance="10"
     inkscape:pageopacity="0"
     inkscape:pageshadow="2"
     inkscape:window-width="1600"
     inkscape:window-height="847"
     id="namedview3276"
     showgrid="false"
     inkscape:zoom="9.0203892"
     inkscape:cx="4.4990362"
     inkscape:cy="15.489112"
     inkscape:window-x="-8"
     inkscape:window-y="-8"
     inkscape:window-maximized="1"
     inkscape:current-layer="svg2" />
  <defs
     id="defs4">
    <filter
       x="-0.25"
       y="-0.25"
       width="1.5"
       height="1.5"
       id="filter3802">
      <feGaussianBlur
         result="blur"
         stdDeviation="2"
         in="SourceAlpha"
         id="feGaussianBlur3804" />
      <feColorMatrix
         values="1 0 0 0 0 0 1 0 0 0 0 0 1 0 0 0 0 0 0.5 0 "
         type="matrix"
         result="bluralpha"
         id="feColorMatrix3806" />
      <feOffset
         result="offsetBlur"
         dy="0"
         dx="0"
         in="bluralpha"
         id="feOffset3808" />
      <feMerge
         id="feMerge3810">
        <feMergeNode
           in="offsetBlur"
           id="feMergeNode3812" />
        <feMergeNode
           in="SourceGraphic"
           id="feMergeNode3814" />
      </feMerge>
    </filter>
  </defs>
  <metadata
     id="metadata7">
    <rdf:RDF>
      <cc:Work
         rdf:about="">
        <dc:format>image/svg+xml</dc:format>
        <dc:type
           rdf:resource="http://purl.org/dc/dcmitype/StillImage" />
        <dc:title></dc:title>
      </cc:Work>
    </rdf:RDF>
  </metadata>
  <g
     transform="translate(0,-1015.3622)"
     id="layer1">
    <path
       d="m 5.3953731,1018.8294 c -1.0681842,0 -1.928114,0.8381 -1.928114,1.8793 l 0,20.6699 c 0,1.0409 0.8599298,1.879 1.928114,1.879 l 4.3382568,0 5.7843411,5.6373 0.964058,0 5.784341,-5.6373 4.338257,0 c 1.068185,0 1.928114,-0.8381 1.928114,-1.879 l 0,-20.6699 c 0,-1.0412 -0.859929,-1.8793 -1.928114,-1.8793 l -21.2092539,0 z"
       id="rect2987"
       style="fill:#6e68e3;fill-opacity:1;fill-rule:nonzero;stroke:#000000;stroke-width:1;stroke-linejoin:bevel;stroke-miterlimit:4;stroke-opacity:1;stroke-dasharray:none;filter:url(#filter3802)" />
  </g>
  <path
     id="path3095"
     style="fill:#ffffff;fill-opacity:1;fill-rule:nonzero;stroke:none"
     d="m 24.461343,14.438114 c -0.284432,-3.278621 -3.606453,-3.603342 -4.644777,-3.603342 -1.085981,0 -3.296551,-0.01296 -6.347541,-0.01296 -1.299061,0 -2.59395,0.552532 -3.441028,1.172154 -0.7395181,-1.157422 -2.4718348,-0.85196 -2.4718348,-0.85196 0.356403,1.336955 1.1930085,1.678271 1.5589071,1.764709 -0.3871087,0.529901 -0.6520144,1.049862 -1.5928968,1.586597 -0.7311765,0.417194 -1.499626,0.517122 -1.499626,0.517122 l 0,1.396147 c 0,0 2.6479956,2.446542 5.9325655,1.637893 l 1.105683,2.286891 -0.630184,0.996082 1.242707,0 0.339009,-1.449928 -0.188141,-1.326665 c 3.078323,0.953933 6.173332,0.337946 7.8264,-0.09265 l 0.861808,1.908835 -0.621574,1.016933 1.261699,0 c 0,0 0.919493,-3.987964 1.098229,-4.770526 0.20686,-0.90494 0.234198,-1.361982 0.235082,-1.572753 0.213169,0.181486 0.477372,0.359511 0.779991,0.473193 -0.05353,-0.185301 -0.07345,-0.372288 -0.08045,-0.495114 -0.306797,-0.165243 -0.558302,-0.399355 -0.723989,-0.580663"
     inkscape:connector-curvature="0" />
</svg>
